<svg width="22" height="22" viewBox="0 0 22 22" fill="none" xmlns="http://www.w3.org/2000/svg">
<path d="M20.2812 4.125H16.5V1.71875H15.125V4.125H6.875V1.71875H5.5V4.125H1.71875C1.44539 4.12548 1.18337 4.23429 0.990081 4.42758C0.79679 4.62087 0.687985 4.88289 0.6875 5.15625V19.5938C0.687985 19.8671 0.79679 20.1291 0.990081 20.3224C1.18337 20.5157 1.44539 20.6245 1.71875 20.625H20.2812C20.5546 20.6245 20.8166 20.5157 21.0099 20.3224C21.2032 20.1291 21.312 19.8671 21.3125 19.5938V5.15625C21.312 4.88289 21.2032 4.62087 21.0099 4.42758C20.8166 4.23429 20.5546 4.12548 20.2812 4.125ZM19.9375 19.25H2.0625V5.5H5.5V7.21875H6.875V5.5H15.125V7.21875H16.5V5.5H19.9375V19.25Z" fill="#C4C4C4"/>
<path d="M4.8125 9.625H6.1875V11H4.8125V9.625Z" fill="#C4C4C4"/>
<path d="M8.59375 9.625H9.96875V11H8.59375V9.625Z" fill="#C4C4C4"/>
<path d="M12.0312 9.625H13.4062V11H12.0312V9.625Z" fill="#C4C4C4"/>
<path d="M15.8125 9.625H17.1875V11H15.8125V9.625Z" fill="#C4C4C4"/>
<path d="M4.8125 12.7188H6.1875V14.0938H4.8125V12.7188Z" fill="#C4C4C4"/>
<path d="M8.59375 12.7188H9.96875V14.0938H8.59375V12.7188Z" fill="#C4C4C4"/>
<path d="M12.0312 12.7188H13.4062V14.0938H12.0312V12.7188Z" fill="#C4C4C4"/>
<path d="M15.8125 12.7188H17.1875V14.0938H15.8125V12.7188Z" fill="#C4C4C4"/>
<path d="M4.8125 15.8125H6.1875V17.1875H4.8125V15.8125Z" fill="#C4C4C4"/>
<path d="M8.59375 15.8125H9.96875V17.1875H8.59375V15.8125Z" fill="#C4C4C4"/>
<path d="M12.0312 15.8125H13.4062V17.1875H12.0312V15.8125Z" fill="#C4C4C4"/>
<path d="M15.8125 15.8125H17.1875V17.1875H15.8125V15.8125Z" fill="#C4C4C4"/>
</svg>
