<svg fill="none" height="22" viewBox="0 0 28 22" width="28" xmlns="http://www.w3.org/2000/svg">
    <path clip-rule="evenodd" d="M10.6369 0.929688H17.3639C17.8252 0.929688 18.4305 1.22991 18.7145 1.60011L20.563 4.32575C20.7437 4.59099 21.0439 4.75208 21.3645 4.75208H25.3398C26.2674 4.75208 27.0175 5.50875 27.0175 6.44686V19.7632C27.0175 20.6997 26.2674 21.4588 25.3398 21.4588H2.66092C1.73339 21.4588 0.982422 20.7013 0.982422 19.7632V6.44686C0.982422 5.51038 1.73339 4.75208 2.66092 4.75208H6.65255C6.96254 4.75208 7.25301 4.59749 7.42875 4.34039L9.28543 1.60011C9.5702 1.23073 10.178 0.929688 10.6369 0.929688ZM20.2994 6.87389C20.2994 7.34254 20.6753 7.7225 21.1391 7.7225C21.6037 7.7225 21.9788 7.34254 21.9788 6.87389C21.9788 6.40525 21.6037 6.02447 21.1391 6.02447C20.6753 6.02447 20.2994 6.40525 20.2994 6.87389ZM7.81483 12.7018C7.81483 16.155 10.584 18.9541 14.0004 18.9541C17.4168 18.9541 20.1851 16.155 20.1851 12.7018C20.1851 9.24777 17.4168 6.44945 14.0004 6.44945C10.584 6.44945 7.81483 9.24777 7.81483 12.7018ZM3.5014 1.7789H5.18234C5.6461 1.7789 6.02118 2.15642 6.02118 2.62832V3.47693H2.66174V2.62832C2.66174 2.15886 3.03519 1.7789 3.5014 1.7789ZM8.94062 12.7035C8.94062 9.87729 11.2053 7.5885 14.0004 7.5885C16.7954 7.5885 19.0601 9.87729 19.0601 12.7035C19.0601 15.5288 16.7954 17.8185 14.0004 17.8185C11.2053 17.8185 8.94062 15.5288 8.94062 12.7035Z"
        fill="#C4C4C4"
        fill-rule="evenodd" />
</svg>