<svg fill="none" height="16" viewBox="-2 0 22 16" width="21" xmlns="http://www.w3.org/2000/svg">
    <path
        d="M19.2426 7.4457C17.2058 3.15527 14.1271 0.996094 9.99997 0.996094C5.87068 0.996094 2.79411 3.15527 0.757393 7.44785C0.6757 7.62084 0.633331 7.80977 0.633331 8.00107C0.633331 8.19238 0.6757 8.38131 0.757393 8.5543C2.79411 12.8447 5.87282 15.0039 9.99997 15.0039C14.1293 15.0039 17.2058 12.8447 19.2426 8.55215C19.408 8.2041 19.408 7.8002 19.2426 7.4457ZM9.99997 13.457C6.53454 13.457 3.99724 11.6996 2.20759 8C3.99724 4.30039 6.53454 2.54297 9.99997 2.54297C13.4654 2.54297 16.0027 4.30039 17.7924 8C16.0049 11.6996 13.4676 13.457 9.99997 13.457ZM9.91403 4.21875C7.82575 4.21875 6.13278 5.91172 6.13278 8C6.13278 10.0883 7.82575 11.7812 9.91403 11.7812C12.0023 11.7812 13.6953 10.0883 13.6953 8C13.6953 5.91172 12.0023 4.21875 9.91403 4.21875ZM9.91403 10.4062C8.58415 10.4062 7.50778 9.32988 7.50778 8C7.50778 6.67012 8.58415 5.59375 9.91403 5.59375C11.2439 5.59375 12.3203 6.67012 12.3203 8C12.3203 9.32988 11.2439 10.4062 9.91403 10.4062Z"
        fill="#C4C4C4" />
</svg>
