<svg width="24" height="23" viewBox="0 0 24 23" fill="none" xmlns="http://www.w3.org/2000/svg">
<path fill-rule="evenodd" clip-rule="evenodd" d="M18.4843 5.38374V5.22C18.4843 4.45103 19.1006 3.82767 19.8728 3.82767C20.6397 3.82767 21.2614 4.4432 21.2614 5.22V7.84876L23.4604 9.80071C24.2885 10.5357 24.0675 11.1315 22.9689 11.1315H21.2614V22.0003C21.2614 22.5525 20.8037 23 20.266 23H3.74294C3.1932 23 2.74756 22.5539 2.74756 22.0003V11.1315H1.03119C-0.0683009 11.1315 -0.290138 10.5373 0.539682 9.80071L11.2473 0.296304C11.663 -0.0727297 12.3334 -0.0759747 12.7528 0.296304L18.4843 5.38374ZM14.7815 13.4139V20.1242H18.4843V13.4139H14.7815Z" fill="#C4C4C4"/>
</svg>
