<svg width="25" height="16" viewBox="0 0 28 16" fill="none" xmlns="http://www.w3.org/2000/svg">
<mask id="path-1-outside-1" maskUnits="userSpaceOnUse" x="0.785706" y="0.928589" width="25" height="15" fill="black">
<rect fill="white" x="0.785706" y="0.928589" width="25" height="15"/>
<path fill-rule="evenodd" clip-rule="evenodd" d="M22.1554 2.44174C21.8403 2.77559 20.6704 3.97653 16.2798 8.4163L22.2041 14.2402H22.2143V2.44174H22.1554ZM7.51844 1.92859C4.10058 1.92859 2.8183 1.93168 2.36966 1.93554L9.9353 9.55232C10.4869 10.1087 11.2199 10.4148 11.9994 10.4148C12.7788 10.4148 13.5127 10.1087 14.0642 9.55232L21.6267 1.93786C20.225 1.93632 12.7874 1.92859 7.51844 1.92859ZM7.71942 8.46681C3.32885 4.02627 2.15971 2.82533 1.84463 2.49225H1.78571V14.2907H1.79592L7.71942 8.46681ZM21.7043 14.8828L15.7863 9.06512L14.5708 10.2892C13.8848 10.9809 12.9718 11.3611 11.9999 11.3611H11.9991C11.028 11.3619 10.115 10.9809 9.42826 10.2892L8.21355 9.06512L2.29555 14.8828V14.8921V14.8928H21.7043V14.8921V14.8828Z"/>
</mask>
<path d="M22.1554 2.44174V1.44174C21.8802 1.44174 21.6171 1.5552 21.4281 1.75538L22.1554 2.44174ZM16.2798 8.4163L15.5688 7.71314C15.382 7.90209 15.278 8.15763 15.2799 8.42336C15.2817 8.68909 15.3893 8.94314 15.5788 9.12942L16.2798 8.4163ZM22.2041 14.2402L21.5031 14.9533C21.6901 15.1371 21.9419 15.2402 22.2041 15.2402V14.2402ZM22.2143 14.2402V15.2402C22.7666 15.2402 23.2143 14.7925 23.2143 14.2402H22.2143ZM22.2143 2.44174H23.2143C23.2143 1.88945 22.7666 1.44174 22.2143 1.44174V2.44174ZM2.36966 1.93554L2.36104 0.935581C1.95878 0.939046 1.59775 1.18322 1.44478 1.55528C1.2918 1.92735 1.37667 2.35485 1.66017 2.64027L2.36966 1.93554ZM9.9353 9.55232L10.6455 8.84831L10.6448 8.8476L9.9353 9.55232ZM14.0642 9.55232L13.3547 8.84764L13.354 8.84831L14.0642 9.55232ZM21.6267 1.93786L22.3363 2.64254C22.6207 2.35615 22.7051 1.92684 22.5502 1.55411C22.3953 1.18137 22.0315 0.938308 21.6278 0.937863L21.6267 1.93786ZM7.71942 8.46681L8.4205 9.17989C8.60997 8.99361 8.71752 8.73958 8.71939 8.47388C8.72127 8.20819 8.61733 7.95266 8.43052 7.76372L7.71942 8.46681ZM1.84463 2.49225L2.57111 1.80505C2.38223 1.60538 2.11949 1.49225 1.84463 1.49225V2.49225ZM1.78571 2.49225V1.49225C1.23342 1.49225 0.785706 1.93996 0.785706 2.49225H1.78571ZM1.78571 14.2907H0.785706C0.785706 14.843 1.23342 15.2907 1.78571 15.2907L1.78571 14.2907ZM1.79592 14.2907V15.2907C2.0582 15.2907 2.30998 15.1876 2.497 15.0038L1.79592 14.2907ZM21.7043 14.8828H22.7043C22.7043 14.6146 22.5965 14.3577 22.4053 14.1697L21.7043 14.8828ZM15.7863 9.06512L16.4873 8.35199C16.0948 7.96619 15.4644 7.97 15.0767 8.36052L15.7863 9.06512ZM14.5708 10.2892L13.8612 9.58464L13.8607 9.58508L14.5708 10.2892ZM11.9991 11.3611V10.3611H11.9983L11.9991 11.3611ZM9.42826 10.2892L8.71843 10.9936L8.71862 10.9938L9.42826 10.2892ZM8.21355 9.06512L8.92338 8.36074C8.53565 7.97002 7.90506 7.9661 7.51251 8.35199L8.21355 9.06512ZM2.29555 14.8828L1.59451 14.1697C1.40327 14.3577 1.29555 14.6146 1.29555 14.8828H2.29555ZM2.29555 14.8928H1.29555C1.29555 15.4451 1.74327 15.8928 2.29555 15.8928V14.8928ZM21.7043 14.8928V15.8928C22.2565 15.8928 22.7043 15.4451 22.7043 14.8928H21.7043ZM21.4281 1.75538C21.1233 2.07843 19.9641 3.26855 15.5688 7.71314L16.9909 9.11946C21.3767 4.68451 22.5574 3.47274 22.8827 3.12809L21.4281 1.75538ZM15.5788 9.12942L21.5031 14.9533L22.9052 13.527L16.9809 7.70318L15.5788 9.12942ZM22.2041 15.2402H22.2143V13.2402H22.2041V15.2402ZM23.2143 14.2402V2.44174H21.2143V14.2402H23.2143ZM22.2143 1.44174H22.1554V3.44174H22.2143V1.44174ZM7.51844 0.928589C4.10254 0.928589 2.81505 0.931671 2.36104 0.935581L2.37827 2.93551C2.82155 2.93169 4.09863 2.92859 7.51844 2.92859V0.928589ZM1.66017 2.64027L9.22581 10.257L10.6448 8.8476L3.07914 1.23082L1.66017 2.64027ZM9.2251 10.2563C9.96362 11.0013 10.952 11.4148 11.9994 11.4148V9.41477C11.4879 9.41477 11.0101 9.21614 10.6455 8.84831L9.2251 10.2563ZM11.9994 11.4148C13.0464 11.4148 14.0357 11.0015 14.7744 10.2563L13.354 8.84831C12.9896 9.21594 12.5112 9.41477 11.9994 9.41477V11.4148ZM14.7738 10.257L22.3363 2.64254L20.9172 1.23318L13.3547 8.84764L14.7738 10.257ZM21.6278 0.937863C20.2261 0.936318 12.7881 0.928589 7.51844 0.928589V2.92859C12.7868 2.92859 20.2239 2.93632 21.6256 2.93786L21.6278 0.937863ZM8.43052 7.76372C4.03577 3.31895 2.87658 2.12799 2.57111 1.80505L1.11816 3.17944C1.44283 3.52267 2.62193 4.73359 7.00832 9.16991L8.43052 7.76372ZM1.84463 1.49225H1.78571V3.49225H1.84463V1.49225ZM0.785706 2.49225V14.2907H2.78571V2.49225H0.785706ZM1.78571 15.2907H1.79592V13.2907H1.78571V15.2907ZM2.497 15.0038L8.4205 9.17989L7.01834 7.75374L1.09484 13.5776L2.497 15.0038ZM22.4053 14.1697L16.4873 8.35199L15.0852 9.77824L21.0032 15.5959L22.4053 14.1697ZM15.0767 8.36052L13.8612 9.58464L15.2804 10.9938L16.4959 9.76972L15.0767 8.36052ZM13.8607 9.58508C13.3624 10.0875 12.705 10.3611 11.9999 10.3611V12.3611C13.2387 12.3611 14.4072 11.8743 15.2808 10.9934L13.8607 9.58508ZM11.9999 10.3611H11.9991V12.3611H11.9999V10.3611ZM11.9983 10.3611C11.2954 10.3617 10.6377 10.0881 10.1379 9.58468L8.71862 10.9938C9.59225 11.8737 10.7606 12.3621 11.9999 12.3611L11.9983 10.3611ZM10.1381 9.58487L8.92338 8.36074L7.50372 9.76949L8.71843 10.9936L10.1381 9.58487ZM7.51251 8.35199L1.59451 14.1697L2.99659 15.5959L8.91459 9.77824L7.51251 8.35199ZM1.29555 14.8828V14.8921H3.29555V14.8828H1.29555ZM1.29555 14.8921V14.8928H3.29555V14.8921H1.29555ZM2.29555 15.8928H21.7043V13.8928H2.29555V15.8928ZM22.7043 14.8928V14.8921H20.7043V14.8928H22.7043ZM22.7043 14.8921V14.8828H20.7043V14.8921H22.7043Z" fill="#C4C4C4" mask="url(#path-1-outside-1)"/>
</svg>
