<svg id="Layer_1" height="512" viewBox="0 0 512 512" width="512" xmlns="http://www.w3.org/2000/svg" xmlns:xlink="http://www.w3.org/1999/xlink" data-name="Layer 1">
    <linearGradient id="linear-gradient" gradientUnits="userSpaceOnUse" x1="256" x2="256" y1="431.612" y2="161.272">
        <stop offset=".322" stop-color="#a163f5" />
        <stop offset=".466" stop-color="#b074ee" />
        <stop offset=".752" stop-color="#d8a1dd" />
        <stop offset=".898" stop-color="#efbad3" />
    </linearGradient>
    <linearGradient id="linear-gradient-2" x1="256" x2="256" xlink:href="#linear-gradient" y1="431.612" y2="161.272" />
    <linearGradient id="linear-gradient-4" x1="427.71" x2="427.71" xlink:href="#linear-gradient" y1="431.612" y2="161.272" />
    <linearGradient id="linear-gradient-5" x1="68.777" x2="68.777" xlink:href="#linear-gradient" y1="431.612" y2="161.272" />
    <linearGradient id="linear-gradient-6" x1="46.112" x2="46.112" xlink:href="#linear-gradient" y1="431.612" y2="161.272" />
    <path d="m333.458 286.625a77.458 77.458 0 1 0 -77.458 77.458 77.545 77.545 0 0 0 77.458-77.458zm-142.916 0a65.458 65.458 0 1 1 65.458 65.458 65.532 65.532 0 0 1 -65.458-65.458z" fill="url(#linear-gradient)" />
    <path d="m259.719 153.072a133.235 133.235 0 0 0 -100.786 41.853 5.995 5.995 0 1 0 8.72 8.228 121.549 121.549 0 0 1 209.858 88.277c-2.444 63.113-53.592 114.261-116.7 116.706a121.577 121.577 0 0 1 -114.763-173.41 6.014 6.014 0 0 0 -2.286-7.745h-.008a6 6 0 0 0 -8.527 2.562 132.9 132.9 0 0 0 -12.766 61.186c2.131 70.741 59.85 127.947 130.606 129.473 76.017 1.64 138.194-60.566 136.508-136.591-1.575-70.875-58.995-128.603-129.856-130.539z" fill="url(#linear-gradient-2)" />
    <path d="m460.167 107.083h-75.98a57.122 57.122 0 0 0 -56.729-51.041h-142.916a57.122 57.122 0 0 0 -56.729 51.041h-75.98a46.887 46.887 0 0 0 -46.833 46.834v255.208a46.886 46.886 0 0 0 46.833 46.833h408.334a46.886 46.886 0 0 0 46.833-46.833v-255.208a46.887 46.887 0 0 0 -46.833-46.834zm34.833 302.042a34.872 34.872 0 0 1 -34.833 34.833h-408.334a34.872 34.872 0 0 1 -34.833-34.833v-255.208a34.873 34.873 0 0 1 34.833-34.834h81.667a6 6 0 0 0 6-6 45.092 45.092 0 0 1 45.042-45.041h142.916a45.092 45.092 0 0 1 45.042 45.041 6 6 0 0 0 6 6h81.667a34.873 34.873 0 0 1 34.833 34.834z" fill="url(#linear-gradient)" />
    <path d="m458.335 150.057h-61.25a6 6 0 0 0 -6 6v30.625a6 6 0 0 0 6 6h61.25a6 6 0 0 0 6-6v-30.625a6 6 0 0 0 -6-6zm-6 30.625h-49.25v-18.625h49.25z" fill="url(#linear-gradient-4)" />
    <path d="m68.777 150.515a21.313 21.313 0 1 0 21.313 21.313 21.336 21.336 0 0 0 -21.313-21.313zm0 30.625a9.313 9.313 0 1 1 9.313-9.312 9.323 9.323 0 0 1 -9.313 9.312z" fill="url(#linear-gradient-5)" />
    <g fill="url(#linear-gradient-6)">
        <path d="m46.112 277.323a6 6 0 0 0 -6 6v12.264a6 6 0 0 0 12 0v-12.264a6 6 0 0 0 -6-6z" />
        <path d="m46.112 310.187a6 6 0 0 0 -6 6v80.913a6 6 0 0 0 12 0v-80.91a6 6 0 0 0 -6-6.003z" />
    </g>
</svg>