<svg width="24" height="23" viewBox="0 0 24 23" fill="none" xmlns="http://www.w3.org/2000/svg">
<path fill-rule="evenodd" clip-rule="evenodd" d="M21.6041 17.9886C20.2966 17.2386 19.0356 16.8696 18.0462 16.6466C18.0482 16.6456 18.0502 16.6456 18.0522 16.6446C17.9533 16.6226 17.8644 16.6046 17.7705 16.5856C17.7089 16.5726 17.6474 16.5586 17.5878 16.5476C17.0214 16.4316 16.5761 16.3586 16.3328 16.2796C15.6937 16.0686 15.0062 15.8456 15.0062 14.9456C15.0062 14.0467 14.994 13.9287 15.2121 13.8087C15.6271 13.5767 15.8724 13.2187 15.9269 12.9407C16.0279 12.4217 16.0804 10.9677 16.2117 10.7827C16.3429 10.5938 16.5782 10.7547 16.6589 10.3288C16.7367 9.90277 16.7367 9.52878 16.8144 9.36978C16.8932 9.20979 17.1678 8.17781 16.9982 7.82382C16.8467 7.50783 16.5721 7.67283 16.5529 7.47683C16.5196 7.15784 17.1062 4.47991 16.7094 3.34594C16.4863 2.70296 16.0148 2.10697 16.0107 2.09297C15.722 1.052 13.73 0.494016 13.2312 0.280022C12.7325 0.0670275 11.2655 -0.225965 10.269 0.280022C9.27246 0.787009 9.00491 1.46899 8.5839 1.73498C8.1649 2.00298 7.71763 2.16597 7.3057 3.34594C6.90892 4.47991 7.49551 7.15784 7.4632 7.47683C7.44402 7.67283 7.16839 7.50783 7.01897 7.82382C6.84733 8.17781 7.12296 9.20979 7.2007 9.36978C7.27945 9.52878 7.27945 9.90277 7.35921 10.3288C7.43695 10.7547 7.6722 10.5938 7.80446 10.7827C7.93571 10.9677 7.98821 12.4217 8.08918 12.9407C8.14269 13.2187 8.38904 13.5767 8.804 13.8087C9.02107 13.9287 9.00996 14.0467 9.00996 14.9456C9.00996 15.8456 8.32341 16.0686 7.68229 16.2796C6.99575 16.5056 4.75436 16.6346 2.39587 17.9886C0.368528 19.1515 0.501799 22.4994 0.501799 22.4994H9.45824H11.5128H23.4982C23.4982 22.4994 23.6324 19.1515 21.6041 17.9886Z" fill="#C4C4C4"/>
</svg>
