<svg width="20" height="20" viewBox="-2 0 25 20" fill="none" xmlns="http://www.w3.org/2000/svg">
<path d="M16.4443 14.4055C16.0391 13.4455 15.4509 12.5735 14.7127 11.8381C13.9767 11.1005 13.1049 10.5125 12.1453 10.1064C12.1367 10.1021 12.1281 10.1 12.1195 10.0957C13.458 9.12891 14.3281 7.5541 14.3281 5.77734C14.3281 2.83398 11.9434 0.449219 8.99999 0.449219C6.05663 0.449219 3.67187 2.83398 3.67187 5.77734C3.67187 7.5541 4.54199 9.12891 5.88046 10.0979C5.87187 10.1021 5.86327 10.1043 5.85468 10.1086C4.89218 10.5146 4.02851 11.0969 3.2873 11.8402C2.54976 12.5762 1.96172 13.4481 1.55566 14.4076C1.15674 15.347 0.941594 16.3542 0.921868 17.3746C0.921294 17.3975 0.925316 17.4204 0.933697 17.4417C0.942077 17.4631 0.954646 17.4825 0.970664 17.4989C0.986681 17.5153 1.00582 17.5284 1.02696 17.5373C1.0481 17.5462 1.07081 17.5508 1.09374 17.5508H2.38281C2.47734 17.5508 2.55253 17.4756 2.55468 17.3832C2.59765 15.7246 3.26366 14.1713 4.44101 12.9939C5.65917 11.7758 7.27695 11.1055 8.99999 11.1055C10.723 11.1055 12.3408 11.7758 13.559 12.9939C14.7363 14.1713 15.4023 15.7246 15.4453 17.3832C15.4475 17.4777 15.5227 17.5508 15.6172 17.5508H16.9062C16.9292 17.5508 16.9519 17.5462 16.973 17.5373C16.9942 17.5284 17.0133 17.5153 17.0293 17.4989C17.0453 17.4825 17.0579 17.4631 17.0663 17.4417C17.0747 17.4204 17.0787 17.3975 17.0781 17.3746C17.0566 16.3477 16.8439 15.3486 16.4443 14.4055ZM8.99999 9.47266C8.01386 9.47266 7.08574 9.08809 6.38749 8.38984C5.68925 7.6916 5.30468 6.76348 5.30468 5.77734C5.30468 4.79121 5.68925 3.86309 6.38749 3.16484C7.08574 2.4666 8.01386 2.08203 8.99999 2.08203C9.98613 2.08203 10.9143 2.4666 11.6125 3.16484C12.3107 3.86309 12.6953 4.79121 12.6953 5.77734C12.6953 6.76348 12.3107 7.6916 11.6125 8.38984C10.9143 9.08809 9.98613 9.47266 8.99999 9.47266Z" fill="#C4C4C4"/>
</svg>
